# xmcd CD database file
#
# Track frame offsets:
#	150
#	16712
#	34725
#	62250
#	76487
#	92987
#	110612
#	127512
#	142900
#	167125
#	176912
#	202262
#	223900
#	240600
#	255075
#	280175
#
# Disc length: 4085 seconds
#
# Revision: 0
# Processed by: cddbd v1.5.2PL0 Copyright (c) Steve Scherf et al.
# Submitted via: CDex 1.70beta2
#
DISCID=d70ff310
DTITLE=Neville Dickie and Mike Goetz - We Got Rhythm
DYEAR=1997
DGENRE=Jazz
TTITLE0=Wild Cat Blues
TTITLE1=Alligator Crawl
TTITLE2=Don't Blame Me
TTITLE3=Russian Lullaby
TTITLE4=Sweet and Slow
TTITLE5=Lady Be Good Boogiw Woogie
TTITLE6=Rosetta
TTITLE7=I Wish I Were Twins
TTITLE8=Ain't Misbehavin
TTITLE9=Two To The Bar
TTITLE10=I'm Gonna Sit Right Down and Write Myself a Letter
TTITLE11=I Got Rhythm
TTITLE12=Dr Heckle and Mr Jibe
TTITLE13=I'm Crazy 'bout My Baby
TTITLE14=I've Got A Crush On You
TTITLE15=After You've Gone
EXTD=YEAR: 1997
EXTT0=
EXTT1=
EXTT2=
EXTT3=
EXTT4=
EXTT5=
EXTT6=
EXTT7=
EXTT8=
EXTT9=
EXTT10=
EXTT11=
EXTT12=
EXTT13=
EXTT14=
EXTT15=
PLAYORDER=
